<?xml version="1.0" encoding="UTF-8" standalone="no"?>
<!DOCTYPE svg PUBLIC "-//W3C//DTD SVG 1.1//EN" "http://www.w3.org/Graphics/SVG/1.1/DTD/svg11.dtd">
<svg width="100%" height="100%" viewBox="0 0 500 533" version="1.1" xmlns="http://www.w3.org/2000/svg" xmlns:xlink="http://www.w3.org/1999/xlink" xml:space="preserve" xmlns:serif="http://www.serif.com/" style="fill-rule:evenodd;clip-rule:evenodd;stroke-linejoin:round;stroke-miterlimit:2;">
    <g transform="matrix(0.643052,0,0,0.652155,-864.34,-542.669)">
        <path d="M1640.87,852.097L1411.14,868.266C1411.14,868.266 1335.69,864.425 1345.72,1000.85C1355.86,1138.65 1365.55,1485.39 1365.55,1485.39C1365.55,1485.39 1363.12,1620.67 1434.27,1620.67C1645.54,1620.67 2014.72,1598.03 2014.72,1598.03C2014.72,1598.03 2113.35,1617.7 2113.35,1436.35C2113.35,1288.57 2120.9,929.454 2120.9,929.454C2120.9,929.454 2129.42,865.043 1974.3,856.425C1819.08,847.802 1640.87,852.097 1640.87,852.097Z" style="fill:white;"/>
    </g>
    <g transform="matrix(0.752504,-0.122211,0.113488,0.698791,-410.706,-125.625)">
        <g transform="matrix(1.27531,-0.950283,0.819463,1.27531,-822.456,257.747)">
            <path d="M703.864,701.791C702.445,702.431 701.06,703.164 699.601,703.698C682.924,709.828 666.292,716.084 649.533,721.977C640.164,725.274 630.635,728.147 621.07,730.825C617.435,731.844 613.498,731.84 609.687,732.162C607.849,732.317 606.993,731.147 607.201,729.39C607.384,727.821 607.67,726.244 608.114,724.728C610.571,716.353 615.124,709.009 619.717,701.714C628.068,688.44 637.722,676.128 648.021,664.329C662.363,647.897 677.76,632.573 696.039,620.448C703.786,615.309 711.868,610.724 721.03,608.535C723.544,607.932 726.181,607.834 728.757,607.508C729.23,608.784 729.556,609.501 729.764,610.251C731.047,614.885 729.967,619.478 729.491,624.079C728.798,630.784 727.995,637.48 727.396,644.196C727.302,645.243 727.816,646.535 728.455,647.416C729.523,648.883 730.917,650.114 731.977,651.23C733.733,651.397 735.278,651.475 736.802,651.707C738.518,651.968 739.863,651.475 741.151,650.317C747.94,644.208 753.45,637.178 757.069,628.73C760.407,620.937 762.539,612.929 761.467,604.366C760.199,594.239 755.346,586.361 746.273,581.462C739.639,577.879 732.449,577.081 725.02,578.075C716.384,579.233 708.278,582.073 700.477,585.827C684.069,593.713 669.683,604.525 656.486,616.915C639.141,633.196 623.45,650.99 609.332,670.145C600.191,682.547 591.71,695.356 585.951,709.755C583.282,716.434 581.366,723.273 581.464,730.593C581.623,742.363 587.671,751.59 598.622,755.893C606.28,758.901 614.235,758.571 622.162,757.136C639.206,754.051 654.958,747.616 669.63,738.503C680.222,731.925 690.716,725.197 701.272,718.562C702.291,717.918 703.199,716.777 704.83,717.188C704.288,719.079 703.77,720.718 703.346,722.38C701.903,728.029 700.371,733.661 699.132,739.355C698.725,741.238 698.794,743.365 699.226,745.244C699.511,746.483 700.616,747.893 701.745,748.513C703.917,749.711 705.975,748.553 707.418,746.907C708.983,745.118 712.272,744.066 710.788,740.533L707.202,740.533C710.266,734.289 714.521,729.398 719.775,725.49C732.176,716.263 743.001,705.406 753.622,694.235C761.54,685.909 768.803,676.877 778.042,669.847C778.743,669.317 779.012,668.05 779.204,667.068C779.375,666.183 778.845,665.091 779.171,664.321C780.561,661.04 779.248,658.64 777.39,655.946C774.341,651.524 770.4,649.38 765.229,650.48C761.259,651.324 757.245,652.539 753.634,654.352C750.125,656.117 747.019,658.742 743.902,661.199C742.059,662.65 740.164,663.449 737.841,663.844C731.047,665.006 724.18,666.024 717.562,667.883C705.938,671.143 694.282,674.522 687.13,685.713C684.843,689.291 684.456,689.108 686.861,692.246C686.734,694.162 686.058,696.008 686.702,697.023C687.325,698.001 689.306,698.119 690.826,698.665C691.87,701.93 692.754,702.643 695.126,702.227C697.905,701.738 700.709,701.367 703.501,700.943C703.619,701.225 703.742,701.506 703.864,701.791ZM603.215,708.23C610.812,694.349 620.063,681.613 629.906,669.269C640.498,655.982 651.942,643.471 664.177,631.701C675.29,621.015 687.378,611.515 700.811,603.893C707.837,599.903 715.165,596.439 723.182,594.789C724.327,594.552 725.492,594.389 726.96,594.854C724.755,596.028 722.664,597.556 720.321,598.322C705.347,603.213 692.302,611.458 680.12,621.19C660.953,636.502 644.614,654.576 629.441,673.743C617.732,688.538 607.27,704.139 599.209,721.264C598.716,722.311 598.015,723.261 597.408,724.255C597.175,724.121 596.939,723.982 596.703,723.848C598.3,718.411 600.489,713.215 603.215,708.23ZM592.366,714.25C596.78,703.067 603.154,692.968 610.001,683.199C626.494,659.671 645.205,638.042 666.724,618.952C678.763,608.275 691.715,598.828 706.541,592.295C711.224,590.232 716.143,588.708 720.956,586.935C721.079,587.196 721.205,587.461 721.327,587.722C720.789,588.06 720.296,588.508 719.713,588.724C698.998,596.403 681.11,608.617 665.028,623.488C640.873,645.822 619.802,670.801 602.441,698.791C598.687,704.844 595.602,711.311 592.191,717.58C592.02,717.889 591.706,718.118 591.457,718.382C591.29,718.321 591.119,718.26 590.952,718.199C591.421,716.883 591.853,715.55 592.366,714.25ZM708.612,704.827C708.208,705.149 707.846,705.553 707.393,705.777C686.331,716.112 665.407,726.782 643.436,735.092C635.147,738.226 626.552,740.59 618.009,742.982C615.218,743.765 612.141,743.532 609.194,743.765C609.112,743.382 609.031,742.998 608.949,742.615C644.137,735.198 676.036,719.344 708.612,704.827ZM630.346,745.175C647.284,740.011 663.223,732.476 678.812,724.17C686.421,720.119 694.001,716.01 701.602,711.947C702.486,711.474 703.432,711.112 704.642,711.165C704.206,711.503 703.811,711.915 703.33,712.171C687.187,720.787 671.121,729.545 654.86,737.929C644.565,743.231 633.529,746.723 622.276,749.389C618.592,750.261 614.716,750.343 610.93,750.783C610.914,750.616 610.897,750.444 610.881,750.273C617.369,748.586 623.931,747.127 630.346,745.175ZM715.157,721.443C721.8,712.497 727.273,702.484 736.871,696.216C737.157,696.473 737.446,696.733 737.731,696.994C730.204,705.145 722.68,713.296 715.157,721.443ZM731.789,671.608C731.883,671.852 731.977,672.101 732.07,672.346C723.548,675.777 715.039,679.233 706.493,682.608C705.58,682.966 704.479,682.848 703.464,682.954C703.375,682.608 703.285,682.257 703.195,681.911C712.296,677.281 721.91,674.074 731.789,671.608ZM735.115,640.769C734.536,635.503 739.761,620.269 743.229,617.065C741.88,625.534 738.766,633.009 735.115,640.769ZM743.058,599.838C738.049,599.427 735.465,594.108 730.509,594.067C739.243,593.578 740.943,594.34 743.058,599.838ZM749.253,681.487C751.254,677.856 752.917,676.588 758.129,674.942C755.822,678.597 752.835,680.374 749.253,681.487ZM603.932,742.852C599.319,743.488 597.567,742.342 596.625,737.387C599.017,739.176 601.41,740.965 603.932,742.852ZM717.138,684.226C719.11,682.559 721.119,681.841 723.679,681.287C721.164,684.641 720.207,685.082 717.138,684.226ZM735.877,685.628C734.084,688.342 732.36,689.952 729.054,690.486C730.84,687.853 732.91,686.708 735.877,685.628ZM693.149,688.167C693.296,688.497 693.443,688.823 693.589,689.153C692.265,689.756 690.936,690.363 689.612,690.967C689.461,690.62 689.306,690.274 689.151,689.927C690.484,689.34 691.821,688.754 693.149,688.167ZM743.612,674.987C744.896,672.916 746.265,672.99 747.68,673.169C746.579,673.662 745.479,674.151 743.612,674.987Z" style="fill:rgb(24,24,24);fill-rule:nonzero;stroke:rgb(25,25,25);stroke-width:2.46px;"/>
        </g>
        <g transform="matrix(1.03367,-0.108406,0.0934825,1.03367,-158.768,-169.392)">
            <path d="M890.713,606.265C885.158,600.555 878.413,597.8 870.409,597.82C862.995,597.841 856.421,600.498 850.015,603.779C841.33,608.225 833.709,614.2 826.544,620.725C815.34,630.93 805.323,642.174 796.825,654.788C790.048,664.846 784.224,675.349 780.214,686.809C777.12,695.653 775.278,704.704 776.207,714.143C777.52,727.519 787.725,738.14 803.342,734.456C808.196,733.31 812.549,731.097 816.726,728.509C827.082,722.09 835.547,713.499 843.853,704.729C844.871,703.657 845.919,702.614 846.954,701.554C847.284,703.408 846.999,704.814 846.734,706.22C845.14,714.698 843.457,723.166 843.812,731.851C843.897,733.938 844.26,736.078 844.9,738.066C845.54,740.063 847.089,741.474 849.346,741.437C850.3,741.425 851.543,741.095 852.13,740.438C852.994,739.468 852.77,738.087 851.604,737.325C850.019,736.29 850.308,734.822 850.512,733.416C850.757,731.717 851.14,730.025 851.576,728.363C855.337,714.001 861.544,700.706 869.239,688.068C875.373,677.989 881.555,667.935 887.742,657.889C889.335,655.301 890.904,652.677 892.718,650.243C896.17,645.614 898.88,640.682 900.209,635.009C900.559,633.501 901.264,632.006 902.108,630.697C904.476,627.021 906.424,623.443 906.97,618.797C907.422,614.937 904.227,613.442 903.722,610.507C900.425,610.336 897.609,606.909 893.509,609.582C892.416,608.282 891.622,607.214 890.713,606.265ZM853.54,711.669C853.267,711.592 852.998,711.51 852.729,711.433C853.495,708.592 854.196,705.735 855.712,703.119C858.048,694.821 861.573,687.025 865.616,679.453C866.142,678.474 867.001,677.672 868.22,677.105C867.059,679.408 865.82,681.67 864.752,684.013C862.286,689.409 859.93,694.858 857.465,700.254C857.008,701.252 856.234,702.104 855.61,703.025C854.922,705.907 854.229,708.788 853.54,711.669ZM868.412,639.623C868.367,641.041 867.486,642.659 866.521,643.792C859.026,652.558 851.612,661.402 843.8,669.879C835.274,679.131 826.487,688.15 817.537,696.989C812.96,701.509 807.772,705.409 802.539,709.342C802.27,706.465 803.338,704.105 804.381,701.778C810.641,687.787 818.727,674.917 828.292,662.955C836.684,652.456 845.976,642.899 857.094,635.237C860.134,633.147 863.289,631.276 867.707,630.017C868.008,633.619 868.497,636.631 868.412,639.623ZM856.409,623.573C843.527,631.993 832.625,642.581 822.827,654.36C815.524,663.138 808.938,672.439 803.611,682.546C800.033,689.332 796.887,696.341 793.541,703.249C792.925,704.521 792.285,705.784 791.368,706.942C791.478,702.552 792.917,698.514 794.612,694.605C801.247,679.31 809.989,665.306 820.692,652.509C827.424,644.452 834.507,636.729 842.711,630.167C847.863,626.043 853.418,622.42 858.822,618.609C859.156,618.373 859.719,618.467 860.318,618.389C859.678,620.884 858.231,622.375 856.409,623.573ZM790.614,683.74C802.05,659.633 818.377,639.305 838.754,622.196C843.498,618.21 848.597,614.632 854.653,612.431C853.202,613.698 851.771,614.994 850.3,616.237C843.518,621.964 836.399,627.335 829.992,633.452C813.727,648.984 800.828,667.047 791.376,687.469C788.878,692.865 787.077,698.583 784.953,704.154C784.631,705.002 784.301,705.846 783.975,706.693C784.566,698.416 787.195,690.933 790.614,683.74ZM808.127,715.378C825.016,701.921 839.427,685.998 853.532,669.773C854.559,668.587 855.623,667.43 857.082,665.804C857.008,668.575 855.802,670.111 854.53,671.591C842.251,685.88 829.723,699.928 815.414,712.26C812.263,714.975 809.093,717.677 805.347,719.535C805.152,719.339 804.96,719.144 804.769,718.948C805.881,717.75 806.859,716.389 808.127,715.378ZM831.031,704.317C838.086,697.385 844.692,689.996 852.081,683.112C851.559,684.205 851.254,685.488 850.488,686.369C838.929,699.663 827.013,712.603 812.569,722.91C811.624,723.582 810.58,724.128 809.586,724.731C809.459,724.613 809.329,724.491 809.203,724.373C816.494,717.705 823.985,711.237 831.031,704.317ZM879.273,616.796C875.585,617.855 873.632,617.399 869.5,614.367C874.407,612.802 875.519,613.103 879.273,616.796ZM796.255,723.065C792.937,724.124 792.937,724.124 791.531,721.846C791.674,721.577 791.821,721.304 791.967,721.031C793.21,721.622 794.449,722.213 796.255,723.065ZM854.649,692.963C854.893,693.036 855.142,693.114 855.39,693.187C854.669,695.486 853.952,697.78 853.23,700.079C852.994,699.908 852.762,699.74 852.529,699.569C853.234,697.368 853.944,695.164 854.649,692.963ZM866.932,663.619C867.201,663.778 867.474,663.941 867.743,664.1C866.753,665.8 865.767,667.495 864.78,669.195C864.471,668.954 864.157,668.718 863.847,668.477C864.878,666.859 865.905,665.237 866.932,663.619ZM850.785,707.908C850.634,707.867 850.483,707.826 850.333,707.785C850.638,706.608 850.948,705.426 851.258,704.248C851.466,704.329 851.674,704.407 851.881,704.488C851.515,705.625 851.148,706.767 850.785,707.908Z" style="fill:rgb(24,24,24);fill-rule:nonzero;stroke:rgb(25,25,25);stroke-width:3.68px;"/>
        </g>
        <g transform="matrix(0.923991,-0.510626,0.440331,0.923991,-364.673,424.953)">
            <path d="M883.273,729.443C883,730.551 882.841,731.705 882.429,732.756C881.895,734.117 882.425,734.973 883.346,735.906C885.319,737.908 887.43,733.881 889.402,736.114C889.594,736.33 890.433,736.118 890.886,735.915C891.342,735.711 891.738,735.307 892.076,734.92C892.333,734.631 892.426,734.203 892.651,733.881C892.948,733.453 893.237,732.825 893.649,732.707C896.404,731.921 896.791,729.422 897.839,727.315C901.132,720.676 904.205,713.891 907.987,707.533C918.632,689.633 932.236,674.089 947.185,659.686C949.337,657.612 951.603,655.648 954.431,653.072C954.667,655.423 954.773,656.968 954.985,658.496C955.201,660.069 955.279,661.72 955.845,663.171C956.746,665.478 957.651,667.927 959.179,669.806C961.502,672.663 966.185,672.634 968.805,670.063C969.376,669.504 969.861,668.343 969.669,667.658C969.478,666.986 968.443,666.391 967.656,666.093C966.87,665.8 965.928,665.922 964.534,665.824C964.958,663.314 965.199,661.105 965.716,658.965C967.261,652.571 970.211,646.796 973.855,641.371C977.083,636.558 979.781,631.614 979.006,625.517C980.824,621.291 975.322,621.34 974.821,618.414C974.735,617.912 973.993,617.46 973.464,617.122C973.174,616.938 972.64,616.906 972.314,617.04C970.745,617.692 969.307,617.595 967.75,616.853C967.204,616.592 966.079,616.902 965.545,617.346C962.301,620.028 959.032,622.709 955.988,625.611C950.902,630.461 945.991,635.486 940.978,640.413C940.089,641.29 939.079,642.035 938.121,642.842C939.315,638.901 940.595,635.229 943.358,632.238C945.233,630.204 947.886,628.219 946.084,624.706C945.917,624.38 946.272,623.72 946.5,623.272C948.224,619.897 945.253,617.521 944.687,614.636C941.654,613.519 939.755,609.101 935.504,611.473C935.358,611.555 935.019,611.322 934.787,611.2C932.615,610.055 931.351,611.705 929.974,612.834C929.387,613.311 929.09,614.469 928.519,614.579C925.886,615.088 924.973,617.252 923.861,619.143C917.809,629.414 911.422,639.517 905.912,650.076C897.39,666.403 889.345,682.998 883.163,700.392C880.946,706.628 879.434,713.104 877.323,719.38C875.851,723.761 877.661,727.694 878.407,731.782C878.509,732.34 879.454,733.094 880.037,733.119C880.563,733.143 881.304,732.389 881.63,731.802C882.046,731.052 882.14,730.119 882.372,729.263C882.67,729.329 882.967,729.394 883.273,729.443ZM923.29,634.622C923.901,637.397 922.455,639.606 921.334,641.823C918.404,647.615 915.196,653.263 912.315,659.079C907.551,668.697 903.002,678.426 898.267,688.056C896.583,691.475 894.619,694.756 892.785,698.102C892.471,697.939 892.153,697.772 891.839,697.609C901.254,676.102 911.382,654.942 923.29,634.622ZM954.019,644C954.688,645.54 953.424,646.099 952.691,646.796C948.465,650.802 944.01,654.584 940,658.794C933.157,665.979 926.587,673.421 919.903,680.757C919.284,681.437 918.66,682.114 918.041,682.79C919.822,676.567 944.1,650.802 954.019,644ZM927.329,663.631C927.639,661.626 928.633,660.465 929.664,659.47C937.669,651.735 945.722,644.057 953.771,636.37C953.946,636.203 954.248,636.167 954.488,636.069C954.716,636.301 954.945,636.529 955.173,636.758C946.023,645.589 936.874,654.421 927.329,663.631ZM926.013,647.366C922.491,654.425 919.883,661.997 914.145,667.821C917.075,658.814 922.516,649.441 926.013,647.366ZM943.158,617.187C941.031,620.843 938.899,624.498 936.768,628.154C936.963,624.604 940.583,618.349 943.158,617.187ZM903.125,692.714C902.102,696.716 899.652,699.92 897.211,703.127C898.234,699.129 900.606,695.881 903.125,692.714ZM969.311,632.083C969.453,628.761 971.846,627.62 973.855,626.19C973.284,628.708 971.846,630.567 969.311,632.083ZM962.582,654.14C962.386,654.087 962.195,654.038 961.999,653.989C962.737,650.916 963.475,647.839 964.212,644.762C964.53,644.909 964.848,645.051 965.166,645.198C964.306,648.177 963.446,651.16 962.582,654.14ZM965.264,628.623C964.877,626.039 965.944,624.441 968.561,623.895C967.46,625.468 966.364,627.046 965.264,628.623ZM888.449,728.505C888.783,728.583 889.113,728.66 889.447,728.738C889.133,730.388 888.82,732.035 888.506,733.685C888.017,733.583 887.528,733.486 887.039,733.384C887.507,731.758 887.98,730.131 888.449,728.505ZM935.843,612.484C937.102,614.982 937.102,614.982 933.944,618.589C934.693,616.18 935.195,614.566 935.843,612.484ZM961.828,659.059C961.743,659.059 961.661,659.063 961.58,659.063C961.543,658.476 961.506,657.893 961.469,657.306C961.628,657.27 961.791,657.229 961.95,657.192C961.91,657.816 961.869,658.435 961.828,659.059Z" style="fill:rgb(24,24,24);fill-rule:nonzero;stroke:rgb(25,25,25);stroke-width:3.68px;"/>
        </g>
        <g transform="matrix(1.03551,0.085686,-0.0738901,1.03551,-119.649,-305.752)">
            <path d="M1008.28,680.101C1014.31,681.535 1020.18,680.26 1025.78,678.006C1041.17,671.815 1053.08,661.414 1061.97,647.501C1065.21,642.418 1067.5,636.974 1067.91,630.832C1068.83,616.824 1058.29,606.358 1044.29,607.21C1038.78,607.544 1033.64,609.207 1028.68,611.583C1021.1,615.219 1014.24,619.975 1007.85,625.363C993.42,637.524 981.36,651.723 972.117,668.208C967.418,676.587 963.974,685.448 963.008,695.127C962.47,700.511 963.07,705.756 965.295,710.671C970.695,722.592 982.493,726.973 993.88,725.241C1001.43,724.087 1008.54,721.508 1015.18,717.807C1040.82,703.506 1063.87,685.713 1084.82,665.221C1090.2,659.955 1106.43,640.923 1111.36,635.209C1112.48,633.917 1113.35,632.385 1114.16,630.873C1114.73,629.801 1115.01,628.468 1113.79,627.633C1112.71,626.887 1111.52,627.091 1110.57,628.085C1110.02,628.66 1109.53,629.296 1108.97,629.854C1106.14,632.65 1091.89,648.625 1088.91,651.258C1076.04,662.645 1061.84,672.141 1046.87,680.516C1035.87,686.674 1024.69,692.478 1012.6,696.231C1006.12,698.241 999.541,699.867 992.666,699.321C989.405,699.06 988.709,698.188 989.006,695.029C989.104,693.978 989.308,692.922 989.589,691.903C991.513,684.93 994.875,678.654 999.329,671.725C1000.48,677.419 1004.21,679.131 1008.28,680.101ZM1048.63,689.336C1049.96,688.341 1051.35,687.432 1052.95,686.846C1051.49,688.419 1050.08,690.057 1047.78,690.469C1046.95,691.259 1046.22,692.201 1045.28,692.816C1034.25,700.05 1023.16,707.207 1010.93,712.33C1009.51,712.925 1007.95,713.206 1006.45,713.634C1005.44,714.18 1004.43,714.722 1003.42,715.264C1003.32,714.987 1003.23,714.706 1003.13,714.429C1004.26,714.192 1005.39,713.952 1006.51,713.715C1007.22,713.202 1007.86,712.525 1008.63,712.187C1020.87,706.856 1032.17,699.859 1043.39,692.726C1044.78,691.846 1046.37,691.267 1047.86,690.55C1048.11,690.139 1048.28,689.609 1048.63,689.336ZM1056.49,679.281C1056.68,679.559 1056.88,679.84 1057.08,680.121C1054.84,681.543 1053.05,683.634 1050.17,684.099C1049.67,684.645 1049.25,685.338 1048.64,685.725C1037.11,693.012 1025.38,699.932 1012.78,705.246C1006.55,707.875 1000.19,710.1 993.424,710.92C992.792,710.997 992.152,711.03 991.297,710.475C993.314,709.603 995.254,708.368 997.365,707.912C1012.19,704.7 1025.5,697.988 1038.5,690.505C1041.83,688.59 1045.1,686.581 1048.42,684.665C1048.94,684.359 1049.63,684.331 1050.25,684.176C1052.32,682.542 1054.4,680.908 1056.49,679.281ZM1040.41,638.763C1033.6,648.793 1024.75,656.671 1014.3,662.735C1011.8,664.178 1009.07,665.241 1006.36,666.252C1005.57,666.55 1004.48,666.06 1003.37,665.91C1013.57,648.548 1034.06,629.943 1043.89,630.168C1043.69,633.636 1042.09,636.285 1040.41,638.763ZM1037.92,623.113C1022.1,631.04 1010.06,643.205 999.635,657.164C992.242,667.071 985.636,677.464 980.761,688.883C980.28,690.008 979.429,690.978 978.288,692.735C980.378,675.047 1014.59,627.033 1041.81,620.59C1040.52,621.438 1039.29,622.424 1037.92,623.113ZM1036.07,616.042C1007.11,631.602 988.729,656.752 973.136,685.313C977.476,663.338 1016.96,619.979 1036.07,616.042ZM1044.52,649.347C1036.93,657.808 1028.29,664.927 1017.91,669.749C1015.88,670.69 1013.72,671.424 1011.54,671.933C1009.52,672.406 1007.37,672.675 1004.67,670.764C1012.26,671.909 1017.59,668.473 1022.91,665.107C1031.94,659.385 1039.75,652.306 1046.31,643.833C1047.99,641.656 1049.87,639.623 1051.66,637.524C1051.87,637.699 1052.07,637.87 1052.28,638.041C1050.45,642.321 1047.6,645.923 1044.52,649.347ZM1017.71,674.207C1025.38,670.967 1032.15,667.055 1038.01,661.834C1043.7,656.756 1049.04,651.283 1054.97,645.557C1047.26,658.236 1027.07,673.8 1017.71,674.207ZM978.182,705.621C981.613,706.102 982.929,709.538 985.807,710.667C979.885,710.569 979.062,710.011 978.182,705.621ZM1054.6,623.879C1052.62,622.208 1051,620.831 1048.96,619.107C1053.48,619.172 1054.42,619.958 1054.6,623.879ZM1064.59,677.977C1064.7,678.116 1064.82,678.258 1064.92,678.397C1064.31,678.931 1063.69,679.465 1063.08,679.999C1062.91,679.844 1062.74,679.689 1062.57,679.534C1063.25,679.017 1063.92,678.495 1064.59,677.977ZM1056.4,684.849C1056.29,684.702 1056.17,684.559 1056.06,684.412C1056.77,683.822 1057.49,683.235 1058.21,682.644C1058.39,682.819 1058.56,682.99 1058.74,683.165C1057.96,683.724 1057.18,684.286 1056.4,684.849Z" style="fill:rgb(24,24,24);fill-rule:nonzero;stroke:rgb(25,25,25);stroke-width:3.68px;"/>
        </g>
        <g transform="matrix(1.4359,0.118818,-0.0968093,1.3567,-633.237,-430.162)">
            <path d="M1120.08,625.693C1117.36,635.262 1114.4,644.77 1111.93,654.405C1105.98,677.655 1099.93,700.894 1096,724.601C1095.2,729.418 1094.98,734.346 1094.69,739.232C1094.56,741.531 1095.16,743.854 1097.17,745.239C1097.99,745.802 1099.45,745.875 1100.46,745.598C1101.86,745.215 1101.53,743.862 1101.47,742.655C1101.36,740.459 1101.04,738.119 1101.61,736.061C1103.66,728.656 1105.81,721.263 1108.35,714.017C1118.94,683.883 1131.97,654.91 1149.6,628.15C1153.39,622.404 1153.34,622.4 1160,624.551C1161.36,624.992 1162.93,625.607 1164.2,625.305C1165.56,624.983 1166.68,623.675 1167.91,622.795C1169.19,623.622 1170.48,625.106 1171.81,625.138C1173.1,625.171 1174.43,623.712 1175.75,622.917C1176.2,622.644 1176.84,622.514 1177.11,622.122C1178.11,620.627 1179.34,619.147 1179.84,617.472C1180.35,615.744 1180.12,613.796 1180.2,611.942C1180.32,609.207 1179.21,607.116 1177.03,605.45C1175.46,604.247 1174.18,602.633 1172.55,601.549C1170.85,600.42 1168.87,599.707 1167.04,598.819C1167.17,598.228 1167.2,597.812 1167.37,597.466C1170.38,591.271 1173.52,585.133 1176.4,578.873C1178.75,573.775 1178.01,566.7 1172.24,562.551C1170.24,561.108 1168.12,562.119 1166.46,560.921C1164.89,559.784 1163.31,560.142 1161.97,560.937C1158.46,563.015 1154.81,565.004 1151.74,567.637C1148.76,570.201 1146.22,573.367 1143.84,576.538C1137.52,584.946 1132.45,594.12 1128.18,603.709C1127.11,606.118 1125.6,607.369 1123.19,608.294C1118.37,610.149 1113.66,612.301 1109.02,614.566C1107.41,615.353 1106.06,616.747 1104.74,618.023C1103.72,619.005 1104.41,621.169 1105.26,622.453C1106.53,624.393 1108.15,623.789 1109.74,623.557C1113.37,623.023 1116.95,621.923 1120.9,622.465C1120.6,623.671 1120.37,624.694 1120.08,625.693ZM1162.85,614.416C1161.33,614.416 1159.82,614.762 1158.07,614.387C1158.62,614 1159.19,613.266 1159.72,613.291C1162.49,613.405 1165.29,613.491 1167.99,614.02C1170.75,614.558 1171.71,616.229 1171.56,619.103C1172.1,618.381 1172.64,617.66 1173.36,616.69C1173.75,617.88 1174.09,618.923 1174.62,620.557C1173.2,619.877 1172.38,619.482 1171.56,619.086C1169.92,615.17 1166.55,614.416 1162.85,614.416ZM1106.01,699.553C1105.69,699.492 1105.38,699.427 1105.06,699.365C1105.56,697.809 1106.06,696.256 1106.56,694.703C1108.14,688.838 1109.64,682.953 1111.34,677.13C1116.59,659.214 1122.54,641.546 1129.7,624.295C1130.54,622.257 1130.56,622.265 1132.68,621.833C1132.48,622.55 1132.39,623.174 1132.14,623.724C1122.25,645.606 1115.12,668.465 1108.16,691.382C1107.81,692.531 1107.04,693.55 1106.47,694.63C1106.31,696.272 1106.16,697.915 1106.01,699.553ZM1109.01,701.338C1108.71,701.252 1108.4,701.167 1108.1,701.081C1108.66,699.761 1109.22,698.44 1109.79,697.12C1111.11,692.694 1112.32,688.239 1113.78,683.866C1120.61,663.342 1128.92,643.425 1138.49,624.034C1139.19,622.612 1139.69,620.949 1142.07,622.163C1139.57,627.201 1137.13,632.181 1134.63,637.12C1125.75,654.649 1118.74,672.944 1112.26,691.463C1111.59,693.383 1110.56,695.18 1109.7,697.034C1109.47,698.469 1109.24,699.899 1109.01,701.338ZM1154.12,582.505C1150.74,588.463 1147.24,594.364 1143.78,600.282C1143.04,601.553 1142.29,602.825 1139.89,602.344C1143.75,593.904 1148.62,586.299 1153.8,578.877C1154.16,579.012 1154.53,579.146 1154.89,579.281C1154.65,580.361 1154.64,581.579 1154.12,582.505ZM1164.7,581.094C1164.87,577.748 1169.78,570.184 1173.25,568.142C1171.79,573.18 1168.15,576.717 1164.7,581.094ZM1152.22,599.984C1151.76,597.563 1153.3,595.982 1154.38,594.429C1154.96,593.586 1156.41,593.337 1157.48,592.82C1156.3,595.778 1156.3,599.34 1152.22,599.984ZM1168.54,608.959C1166.09,609.207 1164.26,608.686 1162.03,607.206C1165.64,606.68 1165.64,606.68 1168.54,608.959ZM1118.16,618.459C1118.1,618.226 1118.04,617.994 1117.98,617.762C1119.25,617.456 1120.53,617.15 1121.81,616.845C1121.87,617.061 1121.92,617.277 1121.98,617.493C1120.71,617.819 1119.43,618.141 1118.16,618.459ZM1103.18,708.116C1103.05,708.079 1102.91,708.046 1102.79,708.01C1103.08,706.824 1103.38,705.642 1103.67,704.456C1103.86,704.562 1104.05,704.672 1104.24,704.778C1103.89,705.89 1103.53,707.003 1103.18,708.116ZM1165.1,566.769C1164.9,564.442 1165.96,564.246 1166.76,563.782C1166.98,564.002 1167.2,564.222 1167.42,564.442C1166.79,565.074 1166.16,565.705 1165.1,566.769ZM1143.62,615.272C1143.58,615.031 1143.53,614.795 1143.48,614.554C1144.3,614.322 1145.12,614.094 1145.94,613.861C1146.01,614.228 1146.09,614.591 1146.16,614.958C1145.32,615.06 1144.47,615.166 1143.62,615.272Z" style="fill:rgb(24,24,24);fill-rule:nonzero;stroke:rgb(25,25,25);stroke-width:2.72px;"/>
        </g>
        <g transform="matrix(1.03551,0.085686,-0.130026,1.8222,-134.218,-711.055)">
            <path d="M1225.12,656.756C1224.95,657.783 1224.81,658.818 1224.62,659.845C1221.39,677.203 1218.46,694.605 1218.23,712.313C1218.17,716.927 1218.65,721.581 1219.34,726.146C1219.61,727.959 1220.93,729.728 1222.12,731.252C1222.89,732.247 1224.46,733.062 1225.58,731.823C1226.18,731.142 1226.15,729.72 1226.1,728.648C1225.97,726.309 1225.32,723.961 1225.47,721.654C1225.67,718.496 1226.25,715.337 1226.95,712.244C1231.47,692.311 1238.85,673.478 1249.12,655.811C1255.12,645.483 1260.93,635.074 1265.65,624.083C1267.35,620.125 1268.52,616.103 1268.53,611.803C1268.53,610.65 1268.36,609.374 1267.85,608.364C1265.24,603.163 1259.56,601.125 1254.13,603.497C1251.83,604.5 1249.54,605.674 1247.55,607.174C1243.1,610.52 1238.71,613.959 1234.54,617.648C1225.21,625.905 1216.04,634.333 1206.81,642.7C1204.02,645.235 1201.25,647.794 1198.58,650.239C1198.73,649.807 1198.9,649.049 1199.25,648.389C1205.94,635.898 1212.57,623.37 1219.44,610.98C1220.75,608.624 1222.75,606.33 1224.98,604.863C1232.3,600.078 1237.69,593.675 1241.8,586.136C1243.82,582.423 1245.78,578.498 1242.9,574.203C1242.58,573.714 1242.56,572.927 1242.61,572.295C1242.79,569.923 1241.61,568.64 1239.5,567.829C1238.72,567.531 1237.95,566.834 1237.52,566.113C1236.28,564.059 1234.39,563.439 1232.2,563.219C1225.88,562.583 1220.42,564.544 1215.91,568.9C1212.87,571.843 1209.97,574.965 1207.28,578.237C1197.75,589.853 1189.84,602.568 1182.51,615.638C1169.17,639.435 1158.46,664.332 1152,690.921C1149.68,700.478 1148.14,710.178 1148.23,720.045C1148.28,725.661 1149.81,730.604 1154.38,734.615C1157.65,737.488 1161.13,737.455 1164.88,737.365C1165.53,737.349 1166.24,737.215 1166.79,736.909C1171.07,734.578 1174.45,731.436 1176.49,726.859C1184.89,708.006 1194.89,690.11 1208.41,674.362C1213.64,668.265 1218.95,662.238 1224.23,656.181C1224.52,656.369 1224.82,656.556 1225.12,656.756ZM1227.32,696.712C1226.87,693.623 1227.46,690.746 1228.76,688.027C1230.14,682.782 1231.35,677.496 1232.94,672.32C1236.67,660.127 1241.74,648.467 1247.58,637.149C1248.83,634.732 1249.85,632.022 1253.17,630.616C1252.74,631.843 1252.56,632.813 1252.1,633.628C1242.71,650.309 1235.14,667.764 1229.84,686.181C1229.66,686.829 1229.07,687.363 1228.67,687.95C1228.22,690.868 1227.77,693.786 1227.32,696.712ZM1175.92,649.282C1186.65,624.898 1199.75,601.794 1216.26,580.402C1217.46,582.362 1216.26,583.389 1215.63,584.383C1212.64,589.082 1209.56,593.72 1206.49,598.358C1195.64,614.746 1186.35,632.014 1178.4,649.958C1170.78,667.173 1164.18,684.8 1160.07,703.249C1159.38,706.306 1159.1,709.501 1156.77,712.053C1159.42,690.016 1167.06,669.398 1175.92,649.282ZM1217.25,592.538C1218.4,595.53 1217.13,597.335 1215.99,599.251C1210.35,608.702 1204.54,618.059 1199.21,627.686C1190.29,643.837 1182.83,660.681 1176.4,677.977C1174.98,681.792 1173.5,684.152 1170.43,687.237C1181.76,653.064 1197.47,622.078 1217.25,592.538ZM1227.33,643.613C1217.64,652.868 1208.54,662.662 1200.19,673.148C1191.67,683.85 1184.02,695.107 1177.77,707.292C1177.42,707.977 1176.98,708.621 1176.37,709.179C1176.3,706.196 1177.49,703.641 1178.85,701.118C1184.85,689.996 1192.2,679.791 1200.13,670.002C1208.48,659.699 1217.54,650.044 1227.3,641.045C1227.88,640.507 1228.46,639.965 1229.09,639.48C1229.24,639.366 1229.55,639.464 1229.97,639.464C1229.92,641.412 1228.54,642.459 1227.33,643.613ZM1232.42,630.449C1218.96,642.113 1206.48,654.718 1195.38,668.657C1192.74,671.974 1190.22,675.389 1187.66,678.776C1187.29,679.281 1187.05,679.885 1186.39,680.162C1186.12,677.672 1187.45,676.033 1188.67,674.366C1196.61,663.546 1205.43,653.479 1215.03,644.114C1220.72,638.559 1226.73,633.334 1232.61,627.983C1233.47,627.196 1234.44,626.524 1235.36,625.803C1235.63,626.064 1235.89,626.324 1236.15,626.585C1234.91,627.877 1233.76,629.279 1232.42,630.449ZM1222.47,699.569C1223.02,696.146 1223.51,692.706 1224.16,689.299C1226.84,675.239 1230.2,661.357 1235.14,647.896C1235.81,646.066 1236.44,644.212 1239.14,642.655C1230.85,661.418 1226.75,680.492 1222.47,699.569ZM1229.57,577.178C1230.3,580.198 1229.2,581.946 1226.97,584.045C1226.9,581.013 1227.28,578.971 1229.57,577.178ZM1259.52,607.496C1258.27,608.783 1257.03,610.067 1255.78,611.355C1255.57,611.168 1255.36,610.98 1255.15,610.793C1256.11,609.211 1256.79,607.361 1259.52,607.496ZM1245.42,628.195C1246.08,624.935 1246.08,624.935 1248.82,622.876C1249.05,623.044 1249.28,623.207 1249.51,623.374C1248.33,624.772 1247.13,626.169 1245.42,628.195ZM1236.45,572.634C1237.39,574.443 1236.77,575.515 1234.69,576.583C1234.31,574.537 1234.16,573.106 1236.45,572.634ZM1263.4,610.577C1264.41,612.741 1263.16,613.156 1261.46,613.165C1262.04,612.398 1262.61,611.632 1263.4,610.577ZM1221.2,709.717C1221.24,709.717 1221.28,709.713 1221.32,709.713L1221.32,711.971C1221.28,711.959 1221.24,711.943 1221.2,711.93L1221.2,709.717ZM1227.23,571.093C1227.21,571.105 1226.82,570.563 1226.86,570.523C1227.34,570.017 1227.86,569.561 1228.37,569.092C1228.58,569.414 1228.79,569.732 1229,570.054C1228.41,570.408 1227.83,570.771 1227.23,571.093ZM1222.15,705.218C1222.1,705.218 1222.06,705.214 1222.01,705.214L1222.01,703.009C1222.06,703.013 1222.1,703.013 1222.15,703.013L1222.15,705.218ZM1165.16,729.744C1165.39,729.993 1165.85,730.409 1165.81,730.458C1165.41,731 1164.92,731.485 1164.46,731.986C1164.23,731.778 1164,731.57 1163.77,731.362C1164.24,730.824 1164.7,730.282 1165.16,729.744ZM1156.36,729.235C1156.68,729.145 1157.27,728.937 1157.29,728.978C1157.51,729.479 1157.64,730.021 1157.8,730.551C1157.49,730.637 1157.19,730.718 1156.88,730.804C1156.71,730.282 1156.54,729.761 1156.36,729.235ZM1164.04,719.869C1163.83,720.285 1163.4,720.595 1163.07,720.945C1162.98,720.701 1162.79,720.44 1162.83,720.216C1162.89,719.78 1163.08,719.368 1163.37,718.463C1163.78,719.278 1164.13,719.682 1164.04,719.869Z" style="fill:rgb(24,24,24);fill-rule:nonzero;stroke:rgb(25,25,25);stroke-width:2.62px;"/>
        </g>
    </g>
    <g transform="matrix(0.762364,0,0,0.707947,-369.07,-30.5588)">
        <g transform="matrix(1.13343,-0.499545,1.03224,1.39416,-853.167,41.9215)">
            <path d="M615.076,723.974C617.44,722.095 619.751,720.147 622.172,718.35C634.635,709.102 648.524,702.545 662.878,696.888C670.283,693.97 677.774,691.301 685.713,690.135C688.293,689.756 690.648,689.723 692.837,691.586C693.473,692.128 694.997,692.063 695.922,691.737C697.267,691.26 697.479,689.821 696.782,688.758C695.73,687.148 694.585,685.379 693.032,684.372C691.443,683.341 689.32,682.71 687.416,682.677C682.13,682.587 676.804,682.604 671.546,683.121C660.164,684.242 649.082,687.042 638.058,689.972C624.421,693.599 611.221,698.364 599.214,705.964C591.239,711.014 584.322,717.074 580.736,726.146C579.338,729.672 578.963,733.295 579.811,737.044C581.657,745.224 587.175,749.65 594.89,751.716C602.919,753.86 610.944,752.894 618.94,751.374C630.192,749.234 640.96,745.464 651.686,741.592C677.68,732.215 702.867,721.036 726.953,707.452C740.484,699.823 753.582,691.545 765.43,681.414C770.198,677.338 774.632,672.973 777.819,667.524C781.56,661.126 782.486,654.605 778.194,648.019C775.5,643.882 771.412,641.747 766.856,640.475C758.326,638.091 749.604,637.842 740.814,638.401C729.924,639.089 719.226,641.005 708.568,643.193C689.972,647.012 671.811,652.445 653.704,658.077C651.939,658.627 650.142,659.068 648.357,659.561C648.23,659.255 648.104,658.953 647.978,658.652C673.388,635.662 700.042,614.388 730.845,598.705C730.861,599.541 730.657,600.132 730.315,600.625C725.314,607.814 720.644,615.174 717.375,623.366C716.165,626.402 716.275,627.046 719.584,628.196C719.943,628.322 720.277,628.518 720.681,628.705C719.931,630.046 717.746,631.13 719.189,632.711C720,633.6 721.92,633.482 723.676,633.893C725.608,636.819 726.252,636.95 729.891,635.686C739.269,632.43 747.163,626.94 753.647,619.539C760.111,612.159 766.347,604.574 772.509,596.937C776.503,591.985 778.757,586.181 779.372,579.84C779.849,574.941 778.602,570.222 775.818,566.313C770.646,559.055 763.233,556.133 754.377,556.679C748.219,557.058 742.35,558.725 736.595,560.75C721.451,566.077 707.863,574.338 694.736,583.402C680.769,593.04 667.247,603.254 654.307,614.266C644.293,622.787 634.659,631.664 626.023,641.58C620.872,647.493 615.948,653.631 613.364,661.191C608.877,674.33 616.018,686.483 630.608,686.406C634.549,686.386 638.604,685.954 642.398,684.931C652.636,682.168 662.808,679.139 672.92,675.94C692.523,669.737 712.187,663.783 732.414,659.899C740.247,658.395 748.125,657.282 756.137,657.857C756.989,657.918 757.829,658.187 758.799,658.383C758.534,659.027 758.465,659.442 758.232,659.72C757.556,660.527 756.843,661.309 756.089,662.047C748.182,669.815 739.118,676.066 729.622,681.65C698.453,699.982 665.494,714.013 630.192,722.238C625.318,723.375 620.362,724.145 615.447,725.087C615.325,724.716 615.207,724.341 615.076,723.974ZM663.522,688.04C663.579,688.366 663.636,688.692 663.693,689.018C661.794,689.173 659.895,689.324 657.995,689.479C657.388,691.174 655.697,690.905 654.45,691.35C645.096,694.692 635.637,697.748 626.378,701.331C616.05,705.329 606.872,711.479 597.747,717.657C597.209,718.02 596.598,718.276 596.007,718.558C595.946,718.586 595.803,718.444 595.298,718.15C613.727,702.81 635.499,695.323 658.056,689.536C659.878,689.039 661.7,688.542 663.522,688.04ZM642.667,647.872C659.846,631.611 678.214,616.78 697.768,603.498C707.517,596.875 717.71,590.884 727.894,584.938C732.398,582.31 737.386,580.5 742.472,578.173C742.696,581.238 741.083,582.232 739.236,583.088C735.389,584.873 731.493,586.564 727.719,588.5C714.824,595.111 702.81,603.131 691.035,611.531C671.885,625.192 654.124,640.516 636.892,656.488C635.686,657.609 634.247,658.485 632.919,659.475C632.65,659.182 632.385,658.888 632.116,658.595C635.629,655.016 639.028,651.316 642.667,647.872ZM717.86,583.161C709.522,588.052 701.44,593.423 693.509,598.954C685.68,604.415 678.043,610.17 670.572,616.108C662.996,622.127 655.668,628.465 648.336,634.786C641.172,640.964 634.818,648.051 627.474,654.026C627.229,653.802 626.989,653.578 626.744,653.354C627.604,652.302 628.407,651.194 629.332,650.199C639.187,639.595 649.767,629.757 660.917,620.521C674.619,609.175 688.827,598.506 703.706,588.757C714.482,581.698 725.612,575.263 737.663,570.568C739.245,569.953 740.883,569.48 742.493,568.942C742.664,569.252 742.839,569.561 743.01,569.871C734.607,574.277 726.028,578.377 717.86,583.161ZM756.256,673.275C740.414,686.149 722.657,695.91 704.456,704.901C684.816,714.6 664.541,722.788 643.535,729.028C634.027,731.856 624.332,734.053 614.693,736.437C612.957,736.865 611.103,736.812 608.804,737.028C610.088,734.811 611.812,734.578 613.438,734.261C650.187,727.088 684.604,713.52 717.571,696.077C731.297,688.819 744.543,680.761 756.476,670.723C758.403,669.106 760.258,667.394 762.19,665.784C763.184,664.957 764.28,664.256 765.332,663.498C765.552,663.73 765.768,663.962 765.988,664.195C763.217,667.704 759.716,670.471 756.256,673.275ZM753.578,682.856C740.316,692.654 726.089,700.87 711.417,708.332C686.312,721.101 660.331,731.693 633.269,739.575C625.913,741.715 618.496,743.589 610.63,743.777C612.024,743.288 613.389,742.656 614.819,742.338C634.537,737.941 653.614,731.489 672.341,724.027C697.259,714.099 721.386,702.512 743.744,687.592C751.553,682.384 758.725,676.225 766.175,670.487C767.3,669.623 768.36,668.678 769.452,667.773C769.599,667.993 769.742,668.217 769.888,668.441C765.067,673.927 759.439,678.524 753.578,682.856ZM749.075,645.594C736.294,645.969 723.749,648.117 711.421,651.267C696.929,654.972 682.546,659.112 668.164,663.229C659.503,665.707 650.945,668.531 642.325,671.143C640.874,671.583 639.342,671.738 637.724,672.052C637.83,669.876 639.26,669.933 640.312,669.611C653.614,665.544 666.913,661.464 680.235,657.466C695.478,652.893 710.908,649.091 726.594,646.385C736.286,644.714 746.034,643.788 755.885,644.318C756.9,644.371 757.91,644.51 758.921,644.612L758.921,645.125C755.636,645.288 752.355,645.504 749.075,645.594ZM755.677,651.247C734.452,651.153 714.184,656.496 694.031,662.255C678.112,666.803 662.348,671.889 646.502,676.706C644.236,677.395 641.922,677.913 639.338,677.847C640.385,677.371 641.396,676.78 642.484,676.437C659.797,670.976 677.069,665.372 694.459,660.164C709.457,655.673 724.736,652.302 740.304,650.391C746.597,649.621 752.914,649.523 759.227,649.91C759.263,650.175 759.296,650.44 759.333,650.705C758.114,650.896 756.891,651.259 755.677,651.247ZM657.466,694.158C657.127,694.353 656.801,694.581 656.447,694.74C655.966,694.961 655.464,695.132 654.971,695.315C641.942,700.173 628.998,705.231 617.358,713.007C613.075,715.868 609.028,719.079 604.904,722.177C602.573,723.925 602.605,723.966 599.337,723.677C616.519,708.776 636.399,700.365 657.466,694.158ZM728.086,622.335C727.784,622.156 727.487,621.972 727.185,621.793C727.748,620.733 728.196,619.596 728.889,618.634C735.002,610.153 741.152,601.701 747.302,593.248C748.569,591.508 748.59,591.524 751.96,592.258C743.903,602.72 736.873,613.226 728.086,622.335ZM734.301,624.487C742.142,616.03 748.561,606.314 757.376,598.75C750.888,608.434 744.176,617.897 734.301,624.487ZM761.489,574.758C760.429,578.291 760.429,578.291 756.508,578.091C757.874,574.264 757.874,574.264 761.489,574.758ZM768.988,576.07C770.842,577.37 770.956,578.78 769.729,580.557C767.076,578.862 767.076,578.862 768.988,576.07ZM591.752,732.977C594.487,734.045 594.487,734.045 593.203,736.633C590.774,736.139 590.774,734.811 591.752,732.977ZM623.879,672.068C624.413,671.665 624.906,671.033 625.489,670.931C625.852,670.866 626.761,671.669 626.712,671.958C626.606,672.574 626.031,673.112 625.412,674.033C624.715,673.14 624.295,672.606 623.879,672.068ZM769.493,653.244C771.73,653.989 772.036,654.935 771.38,656.284C771.033,656.374 770.691,656.467 770.349,656.561C770.104,655.62 769.86,654.674 769.493,653.244ZM761.411,567.234C761.334,567.532 761.252,567.825 761.171,568.119C760.233,567.943 759.292,567.772 758.351,567.597C758.485,567.145 758.62,566.688 758.754,566.232C759.638,566.566 760.527,566.9 761.411,567.234ZM723.855,625.176C723.615,625.119 723.37,625.058 723.13,625C723.297,624.263 723.464,623.525 723.631,622.787C723.9,622.893 724.169,623.003 724.438,623.109C724.243,623.798 724.051,624.487 723.855,625.176ZM728.563,630.197C728.493,629.948 728.428,629.695 728.363,629.447C729.064,629.276 729.761,629.1 730.458,628.929C730.523,629.166 730.592,629.402 730.657,629.638C729.957,629.826 729.26,630.009 728.563,630.197ZM680.716,685.245C680.729,685.318 680.737,685.387 680.749,685.461C680.17,685.538 679.587,685.619 679.005,685.697C678.96,685.546 678.915,685.395 678.87,685.245L680.716,685.245Z" style="fill:rgb(24,24,24);fill-rule:nonzero;stroke:rgb(25,25,25);stroke-width:2.33px;"/>
        </g>
        <g transform="matrix(0.99192,-0.13662,0.117812,0.99192,-191.084,-60.477)">
            <path d="M839.163,682.876C838.678,687.021 838.038,691.153 837.736,695.31C837.153,703.339 837.663,711.205 841.844,718.427C847.138,727.568 856.924,731.537 867.051,728.644C873.209,726.883 878.328,723.415 882.982,719.168C894.809,708.38 903.796,695.388 910.814,681.185C919.874,662.857 927.544,643.914 932.39,623.956C934.048,617.138 936.021,610.356 936.037,603.245C936.045,599.565 934.762,597.396 932.43,596.911C929.981,596.402 927.609,598.252 926.415,601.623C926.236,602.12 925.922,602.719 926.056,603.151C927.018,606.191 925.339,608.563 923.986,610.882C916.365,623.94 908.678,636.957 900.919,649.93C894.455,660.742 887.889,671.497 881.311,682.24C876.531,690.049 871.714,697.853 865.291,704.472C863.677,706.139 861.79,707.541 859.756,709.302C857.775,705.295 857.653,701.57 858.163,697.931C858.949,692.29 859.899,686.646 861.252,681.119C865.405,664.178 872.117,648.161 879.286,632.315C880.154,630.4 880.81,628.366 881.328,626.328C882.078,623.378 881.809,620.631 879.245,618.455C878.157,617.529 877.309,616.319 876.6,615.516C874.444,615.373 872.659,615.214 870.87,615.153C870.12,615.129 868.848,615.088 868.69,615.447C867.601,617.872 864.907,618.181 863.237,619.852C854.971,628.118 847.191,636.802 840.031,646.042C829.552,659.568 819.078,673.099 808.584,686.613C808.026,687.335 807.317,687.942 806.677,688.602C806.738,687.025 807.223,685.818 807.802,684.665C812.199,675.895 816.429,667.03 821.075,658.39C827.282,646.853 833.363,635.209 842.178,625.301C844.982,622.147 844.815,621.874 841.954,618.707C842.769,617.729 843.866,616.849 844.342,615.708C844.742,614.754 844.823,613.246 844.318,612.435C843.495,611.11 841.893,611.335 840.801,612.248C839.399,613.417 838.188,614.827 836.966,616.197C836.179,617.085 835.519,618.084 834.41,619.555C834.37,615.072 836.179,612.431 838.836,610.238C839.244,609.904 839.904,609.603 839.982,609.195C840.19,608.115 840.483,606.856 840.116,605.906C839.599,604.561 838.205,604.529 837.08,605.262C835.78,606.114 834.508,607.076 833.42,608.18C832.096,609.521 830.975,611.066 829.768,612.525C829.52,612.358 829.275,612.195 829.027,612.027C829.956,610.356 830.767,608.604 831.851,607.039C832.723,605.78 833.074,604.569 832.002,603.465C830.869,602.299 829.548,602.849 828.419,603.693C827.678,604.247 827.05,604.961 826.284,605.474C825.55,605.959 824.719,606.574 823.908,606.611C821.919,606.705 820.733,607.891 819.731,609.305C816.821,613.413 813.768,617.444 811.172,621.748C802.817,635.612 795.73,650.154 788.948,664.834C783.548,676.526 778.637,688.447 776.371,701.208C775.568,705.74 775.145,710.447 775.401,715.028C775.707,720.481 778.719,727.16 786.034,728.856C790.896,729.985 795.388,728.717 799.137,725.779C803.502,722.355 807.806,718.72 811.478,714.587C819.661,705.377 827.429,695.799 835.372,686.373C836.452,685.089 837.553,683.826 838.645,682.554C838.82,682.66 838.999,682.766 839.163,682.876ZM924.976,619.848C921.757,626.96 918.777,634.19 915.244,641.139C906.363,658.619 897.316,676.017 886.768,692.576C881.915,700.189 876.588,707.447 869.953,713.646C868.963,714.571 867.83,715.333 866.762,716.173C866.53,715.92 866.293,715.667 866.061,715.415C867.919,713.287 869.761,711.144 871.644,709.037C879.375,700.401 885.717,690.787 891.357,680.712C900.161,664.997 908.878,649.229 917.547,633.44C919.646,629.613 921.39,625.595 923.379,621.707C923.737,621.01 924.499,620.521 925.074,619.938C925.461,618.463 925.853,616.991 926.244,615.516C926.615,614.554 927.006,613.613 927.401,612.671C927.597,612.794 927.797,612.912 927.992,613.034C927.365,613.817 926.741,614.595 926.113,615.378C926.843,617.15 925.885,618.495 924.976,619.848ZM927.01,622.787C927.324,622.872 927.638,622.954 927.951,623.039C927.483,624.971 927.047,626.911 925.742,628.586C924.622,631.834 923.664,635.144 922.331,638.298C914.274,657.351 905.699,676.155 894.557,693.648C889.132,702.165 883.048,710.19 875.365,716.853C873.535,718.439 871.51,719.796 869.329,720.888C873.254,716.817 877.374,712.908 881.071,708.637C889.442,698.97 895.93,688.032 901.97,676.812C910.076,661.757 917.73,646.49 924.243,630.665C924.552,629.911 925.298,629.336 925.84,628.676C926.227,626.716 926.619,624.755 927.01,622.787ZM786.511,691.039C792.017,675.931 799.039,661.5 806.469,647.264C809.904,640.682 813.564,634.219 817.143,627.71C817.766,626.573 818.5,625.497 819.372,624.087C820.929,625.986 819.751,627.315 819.087,628.57C816.356,633.725 813.519,638.828 810.781,643.979C802.251,660.033 794.157,676.294 787.652,693.297C786.658,695.897 785.81,698.554 784.84,701.163C784.294,702.626 783.642,704.048 783.035,705.487C782.725,705.328 782.419,705.173 782.11,705.014C783.569,700.356 784.844,695.628 786.511,691.039ZM822.461,638.677C817.257,648.503 811.734,658.178 806.942,668.204C801.293,680.019 796.284,692.136 790.986,704.118C790.635,704.916 790.208,705.687 789.45,706.375C788.842,704.452 789.523,702.679 790.179,701C792.73,694.467 795.021,687.799 798.09,681.515C805.413,666.533 813.12,651.735 820.688,636.876C821.161,635.947 821.797,635.103 822.498,634.003C824.409,636.016 823.187,637.312 822.461,638.677ZM849.021,649.082C840.617,659.491 832.21,669.891 823.826,680.313C816.523,689.393 809.265,698.506 801.949,707.574C800.743,709.069 799.337,710.394 798.024,711.8C797.755,711.612 797.486,711.421 797.217,711.233C797.812,710.161 798.265,708.976 799.023,708.038C807.602,697.438 816.258,686.899 824.825,676.286C833.807,665.16 842.716,653.968 851.67,642.818C851.797,642.659 852.078,642.63 852.555,642.423C851.968,645.104 850.59,647.138 849.021,649.082ZM842.953,666.59C830.429,681.878 817.868,697.136 805.271,712.358C803.869,714.054 802.173,715.504 800.107,716.597C814.656,698.636 829.21,680.675 843.76,662.714C844.065,662.91 844.371,663.106 844.677,663.301C844.114,664.402 843.723,665.653 842.953,666.59ZM850.488,708.14C849.29,705.837 848.927,705.271 849.298,701.978C850.02,695.543 850.643,689.042 852.074,682.746C853.716,675.528 856.1,668.477 858.35,661.41C859.051,659.222 860.351,657.221 861.374,655.134C861.716,655.297 862.063,655.464 862.405,655.627C856.129,672.573 850.888,689.755 850.488,708.14ZM851.638,667.703C847.725,680.406 845.056,692.466 844.082,704.863C842.92,694.022 847.073,672.655 851.638,667.703ZM872.626,630.881C872.37,630.722 872.117,630.559 871.86,630.4C872.362,627.596 874.375,625.689 875.972,623.537C876.278,623.757 876.584,623.973 876.889,624.189C875.471,626.422 874.053,628.651 872.626,630.881ZM861.977,718.606C858.057,720.587 857.804,720.562 854.197,717.489C857.197,717.921 859.438,718.243 861.977,718.606ZM868.233,626.495C868.001,626.341 867.764,626.182 867.532,626.027C868.237,623.573 869.684,621.58 871.62,619.897C871.885,620.105 872.154,620.309 872.419,620.517C871.025,622.51 869.627,624.507 868.233,626.495ZM858.672,647.492C858.391,647.346 858.114,647.199 857.832,647.052C858.647,645.438 859.467,643.829 860.282,642.215C860.624,642.447 860.962,642.683 861.301,642.916C860.424,644.44 859.548,645.964 858.672,647.492ZM788.484,719.201C788.243,719.278 787.648,718.969 787.575,718.728C787.192,717.465 787.807,716.813 789.311,716.613C789.93,717.946 789.71,718.806 788.484,719.201Z" style="fill:rgb(24,24,24);fill-rule:nonzero;stroke:rgb(25,25,25);stroke-width:3.95px;"/>
        </g>
        <g transform="matrix(0.99192,-0.13662,0.117812,0.99192,-265.156,73.6516)">
            <path d="M1028.33,606.265C1022.77,600.555 1016.03,597.8 1008.02,597.82C1000.61,597.841 994.037,600.498 987.631,603.779C978.946,608.225 971.325,614.2 964.16,620.725C952.956,630.93 942.939,642.174 934.441,654.788C927.664,664.846 921.84,675.349 917.83,686.809C914.736,695.653 912.894,704.704 913.823,714.143C915.136,727.519 925.341,738.14 940.958,734.456C945.812,733.31 950.165,731.097 954.342,728.509C964.698,722.09 973.163,713.499 981.469,704.729C982.487,703.657 983.535,702.614 984.57,701.554C984.9,703.408 984.615,704.814 984.35,706.22C982.756,714.698 981.073,723.166 981.428,731.851C981.513,733.938 981.876,736.078 982.516,738.066C983.156,740.063 984.705,741.474 986.962,741.437C987.916,741.425 989.159,741.095 989.746,740.438C990.61,739.468 990.386,738.087 989.22,737.325C987.635,736.29 987.924,734.822 988.128,733.416C988.372,731.717 988.756,730.025 989.192,728.363C992.953,714.001 999.16,700.706 1006.86,688.068C1012.99,677.989 1019.17,667.935 1025.36,657.889C1026.95,655.301 1028.52,652.677 1030.33,650.243C1033.79,645.614 1036.5,640.682 1037.83,635.009C1038.17,633.501 1038.88,632.006 1039.72,630.697C1042.09,627.021 1044.04,623.443 1044.59,618.797C1045.04,614.937 1041.84,613.442 1041.34,610.507C1038.04,610.336 1035.22,606.909 1031.12,609.582C1030.03,608.282 1029.24,607.214 1028.33,606.265ZM991.156,711.669C990.883,711.592 990.614,711.51 990.345,711.433C991.111,708.592 991.812,705.735 993.328,703.119C995.664,694.821 999.189,687.025 1003.23,679.453C1003.76,678.474 1004.62,677.672 1005.84,677.105C1004.68,679.408 1003.44,681.67 1002.37,684.013C999.902,689.409 997.546,694.858 995.081,700.254C994.624,701.252 993.85,702.104 993.226,703.025C992.538,705.907 991.845,708.788 991.156,711.669ZM1006.03,639.623C1005.98,641.041 1005.1,642.659 1004.14,643.792C996.642,652.558 989.228,661.402 981.416,669.879C972.89,679.131 964.103,688.15 955.153,696.989C950.576,701.509 945.388,705.409 940.155,709.342C939.886,706.465 940.954,704.105 941.997,701.778C948.257,687.787 956.343,674.917 965.908,662.955C974.3,652.456 983.592,642.899 994.71,635.237C997.75,633.147 1000.9,631.276 1005.32,630.017C1005.62,633.619 1006.11,636.631 1006.03,639.623ZM994.025,623.573C981.143,631.993 970.241,642.581 960.443,654.36C953.14,663.138 946.554,672.439 941.227,682.546C937.649,689.332 934.503,696.341 931.157,703.249C930.541,704.521 929.901,705.784 928.984,706.942C929.094,702.552 930.533,698.514 932.228,694.605C938.863,679.31 947.605,665.306 958.308,652.509C965.04,644.452 972.123,636.729 980.327,630.167C985.479,626.043 991.034,622.42 996.438,618.609C996.772,618.373 997.335,618.467 997.934,618.389C997.294,620.884 995.847,622.375 994.025,623.573ZM928.23,683.74C939.666,659.633 955.993,639.305 976.37,622.196C981.114,618.21 986.212,614.632 992.269,612.431C990.818,613.698 989.387,614.994 987.916,616.237C981.134,621.964 974.015,627.335 967.608,633.452C951.342,648.984 938.444,667.047 928.992,687.469C926.494,692.865 924.693,698.583 922.569,704.154C922.247,705.002 921.917,705.846 921.591,706.693C922.182,698.416 924.811,690.933 928.23,683.74ZM945.743,715.378C962.632,701.921 977.043,685.998 991.148,669.773C992.175,668.587 993.239,667.43 994.698,665.804C994.624,668.575 993.418,670.111 992.146,671.591C979.867,685.88 967.339,699.928 953.03,712.26C949.879,714.975 946.709,717.677 942.963,719.535C942.768,719.339 942.576,719.144 942.385,718.948C943.497,717.75 944.475,716.389 945.743,715.378ZM968.647,704.317C975.702,697.385 982.308,689.996 989.697,683.112C989.175,684.205 988.87,685.488 988.104,686.369C976.545,699.663 964.629,712.603 950.185,722.91C949.24,723.582 948.196,724.128 947.202,724.731C947.075,724.613 946.945,724.491 946.819,724.373C954.11,717.705 961.601,711.237 968.647,704.317ZM1016.89,616.796C1013.2,617.855 1011.25,617.399 1007.12,614.367C1012.02,612.802 1013.13,613.103 1016.89,616.796ZM933.871,723.065C930.553,724.124 930.553,724.124 929.147,721.846C929.29,721.577 929.437,721.304 929.583,721.031C930.826,721.622 932.065,722.213 933.871,723.065ZM992.265,692.963C992.509,693.036 992.758,693.114 993.006,693.187C992.285,695.486 991.568,697.78 990.846,700.079C990.61,699.908 990.378,699.74 990.145,699.569C990.85,697.368 991.56,695.164 992.265,692.963ZM1004.55,663.619C1004.82,663.778 1005.09,663.941 1005.36,664.1C1004.37,665.8 1003.38,667.495 1002.4,669.195C1002.09,668.954 1001.77,668.718 1001.46,668.477C1002.49,666.859 1003.52,665.237 1004.55,663.619ZM988.401,707.908C988.25,707.867 988.099,707.826 987.949,707.785C988.254,706.608 988.564,705.426 988.874,704.248C989.082,704.329 989.29,704.407 989.497,704.488C989.131,705.625 988.764,706.767 988.401,707.908Z" style="fill:rgb(24,24,24);fill-rule:nonzero;stroke:rgb(25,25,25);stroke-width:3.95px;"/>
        </g>
        <g transform="matrix(1.05589,-0.218089,0.302684,1.69941,-443.474,-346.375)">
            <path d="M1020.89,729.443C1020.62,730.551 1020.46,731.705 1020.05,732.756C1019.51,734.117 1020.04,734.973 1020.96,735.906C1022.94,737.908 1025.05,733.881 1027.02,736.114C1027.21,736.33 1028.05,736.118 1028.5,735.915C1028.96,735.711 1029.35,735.307 1029.69,734.92C1029.95,734.631 1030.04,734.203 1030.27,733.881C1030.56,733.453 1030.85,732.825 1031.27,732.707C1034.02,731.921 1034.41,729.422 1035.45,727.315C1038.75,720.676 1041.82,713.891 1045.6,707.533C1056.25,689.633 1069.85,674.089 1084.8,659.686C1086.95,657.612 1089.22,655.648 1092.05,653.072C1092.28,655.423 1092.39,656.968 1092.6,658.496C1092.82,660.069 1092.89,661.72 1093.46,663.171C1094.36,665.478 1095.27,667.927 1096.8,669.806C1099.12,672.663 1103.8,672.634 1106.42,670.063C1106.99,669.504 1107.48,668.343 1107.29,667.658C1107.09,666.986 1106.06,666.391 1105.27,666.093C1104.49,665.8 1103.54,665.922 1102.15,665.824C1102.57,663.314 1102.82,661.105 1103.33,658.965C1104.88,652.571 1107.83,646.796 1111.47,641.371C1114.7,636.558 1117.4,631.614 1116.62,625.517C1118.44,621.291 1112.94,621.34 1112.44,618.414C1112.35,617.912 1111.61,617.46 1111.08,617.122C1110.79,616.938 1110.26,616.906 1109.93,617.04C1108.36,617.692 1106.92,617.595 1105.37,616.853C1104.82,616.592 1103.69,616.902 1103.16,617.346C1099.92,620.028 1096.65,622.709 1093.6,625.611C1088.52,630.461 1083.61,635.486 1078.59,640.413C1077.7,641.29 1076.69,642.035 1075.74,642.842C1076.93,638.901 1078.21,635.229 1080.97,632.238C1082.85,630.204 1085.5,628.219 1083.7,624.706C1083.53,624.38 1083.89,623.72 1084.12,623.272C1085.84,619.897 1082.87,617.521 1082.3,614.636C1079.27,613.519 1077.37,609.101 1073.12,611.473C1072.97,611.555 1072.63,611.322 1072.4,611.2C1070.23,610.055 1068.97,611.705 1067.59,612.834C1067,613.311 1066.71,614.469 1066.13,614.579C1063.5,615.088 1062.59,617.252 1061.48,619.143C1055.42,629.414 1049.04,639.517 1043.53,650.076C1035.01,666.403 1026.96,682.998 1020.78,700.392C1018.56,706.628 1017.05,713.104 1014.94,719.38C1013.47,723.761 1015.28,727.694 1016.02,731.782C1016.12,732.34 1017.07,733.094 1017.65,733.119C1018.18,733.143 1018.92,732.389 1019.25,731.802C1019.66,731.052 1019.76,730.119 1019.99,729.263C1020.29,729.329 1020.58,729.394 1020.89,729.443ZM1060.91,634.622C1061.52,637.397 1060.07,639.606 1058.95,641.823C1056.02,647.615 1052.81,653.263 1049.93,659.079C1045.17,668.697 1040.62,678.426 1035.88,688.056C1034.2,691.475 1032.24,694.756 1030.4,698.102C1030.09,697.939 1029.77,697.772 1029.45,697.609C1038.87,676.102 1049,654.942 1060.91,634.622ZM1091.63,644C1092.3,645.54 1091.04,646.099 1090.31,646.796C1086.08,650.802 1081.63,654.584 1077.62,658.794C1070.77,665.979 1064.2,673.421 1057.52,680.757C1056.9,681.437 1056.28,682.114 1055.66,682.79C1057.44,676.567 1081.72,650.802 1091.63,644ZM1064.94,663.631C1065.26,661.626 1066.25,660.465 1067.28,659.47C1075.28,651.735 1083.34,644.057 1091.39,636.37C1091.56,636.203 1091.86,636.167 1092.1,636.069C1092.33,636.301 1092.56,636.529 1092.79,636.758C1083.64,645.589 1074.49,654.421 1064.94,663.631ZM1063.63,647.366C1060.11,654.425 1057.5,661.997 1051.76,667.821C1054.69,658.814 1060.13,649.441 1063.63,647.366ZM1080.77,617.187C1078.65,620.843 1076.52,624.498 1074.38,628.154C1074.58,624.604 1078.2,618.349 1080.77,617.187ZM1040.74,692.714C1039.72,696.716 1037.27,699.92 1034.83,703.127C1035.85,699.129 1038.22,695.881 1040.74,692.714ZM1106.93,632.083C1107.07,628.761 1109.46,627.62 1111.47,626.19C1110.9,628.708 1109.46,630.567 1106.93,632.083ZM1100.2,654.14C1100,654.087 1099.81,654.038 1099.62,653.989C1100.35,650.916 1101.09,647.839 1101.83,644.762C1102.15,644.909 1102.46,645.051 1102.78,645.198C1101.92,648.177 1101.06,651.16 1100.2,654.14ZM1102.88,628.623C1102.49,626.039 1103.56,624.441 1106.18,623.895C1105.08,625.468 1103.98,627.046 1102.88,628.623ZM1026.07,728.505C1026.4,728.583 1026.73,728.66 1027.06,728.738C1026.75,730.388 1026.44,732.035 1026.12,733.685C1025.63,733.583 1025.14,733.486 1024.65,733.384C1025.12,731.758 1025.6,730.131 1026.07,728.505ZM1073.46,612.484C1074.72,614.982 1074.72,614.982 1071.56,618.589C1072.31,616.18 1072.81,614.566 1073.46,612.484ZM1099.44,659.059C1099.36,659.059 1099.28,659.063 1099.19,659.063C1099.16,658.476 1099.12,657.893 1099.09,657.306C1099.24,657.27 1099.41,657.229 1099.57,657.192C1099.53,657.816 1099.49,658.435 1099.44,659.059Z" style="fill:rgb(24,24,24);fill-rule:nonzero;stroke:rgb(25,25,25);stroke-width:2.79px;"/>
        </g>
        <g transform="matrix(1.18913,-0.967293,0.834131,1.18913,-907.616,924.234)">
            <path d="M1120.08,625.693C1117.36,635.262 1114.4,644.77 1111.93,654.405C1105.98,677.655 1099.93,700.894 1096,724.601C1095.2,729.418 1094.98,734.346 1094.69,739.232C1094.56,741.531 1095.16,743.854 1097.17,745.239C1097.99,745.802 1099.45,745.875 1100.46,745.598C1101.86,745.215 1101.53,743.862 1101.47,742.655C1101.36,740.459 1101.04,738.119 1101.61,736.061C1103.66,728.656 1105.81,721.263 1108.35,714.017C1118.94,683.883 1131.97,654.91 1149.6,628.15C1153.39,622.404 1153.34,622.4 1160,624.551C1161.36,624.992 1162.93,625.607 1164.2,625.305C1165.56,624.983 1166.68,623.675 1167.91,622.795C1169.19,623.622 1170.48,625.106 1171.81,625.138C1173.1,625.171 1174.43,623.712 1175.75,622.917C1176.2,622.644 1176.84,622.514 1177.11,622.122C1178.11,620.627 1179.34,619.147 1179.84,617.472C1180.35,615.744 1180.12,613.796 1180.2,611.942C1180.32,609.207 1179.21,607.116 1177.03,605.45C1175.46,604.247 1174.18,602.633 1172.55,601.549C1170.85,600.42 1168.87,599.707 1167.04,598.819C1167.17,598.228 1167.2,597.812 1167.37,597.466C1170.38,591.271 1173.52,585.133 1176.4,578.873C1178.75,573.775 1178.01,566.7 1172.24,562.551C1170.24,561.108 1168.12,562.119 1166.46,560.921C1164.89,559.784 1163.31,560.142 1161.97,560.937C1158.46,563.015 1154.81,565.004 1151.74,567.637C1148.76,570.201 1146.22,573.367 1143.84,576.538C1137.52,584.946 1132.45,594.12 1128.18,603.709C1127.11,606.118 1125.6,607.369 1123.19,608.294C1118.37,610.149 1113.66,612.301 1109.02,614.566C1107.41,615.353 1106.06,616.747 1104.74,618.023C1103.72,619.005 1104.41,621.169 1105.26,622.453C1106.53,624.393 1108.15,623.789 1109.74,623.557C1113.37,623.023 1116.95,621.923 1120.9,622.465C1120.6,623.671 1120.37,624.694 1120.08,625.693ZM1162.85,614.416C1161.33,614.416 1159.82,614.762 1158.07,614.387C1158.62,614 1159.19,613.266 1159.72,613.291C1162.49,613.405 1165.29,613.491 1167.99,614.02C1170.75,614.558 1171.71,616.229 1171.56,619.103C1172.1,618.381 1172.64,617.66 1173.36,616.69C1173.75,617.88 1174.09,618.923 1174.62,620.557C1173.2,619.877 1172.38,619.482 1171.56,619.086C1169.92,615.17 1166.55,614.416 1162.85,614.416ZM1106.01,699.553C1105.69,699.492 1105.38,699.427 1105.06,699.365C1105.56,697.809 1106.06,696.256 1106.56,694.703C1108.14,688.838 1109.64,682.953 1111.34,677.13C1116.59,659.214 1122.54,641.546 1129.7,624.295C1130.54,622.257 1130.56,622.265 1132.68,621.833C1132.48,622.55 1132.39,623.174 1132.14,623.724C1122.25,645.606 1115.12,668.465 1108.16,691.382C1107.81,692.531 1107.04,693.55 1106.47,694.63C1106.31,696.272 1106.16,697.915 1106.01,699.553ZM1109.01,701.338C1108.71,701.252 1108.4,701.167 1108.1,701.081C1108.66,699.761 1109.22,698.44 1109.79,697.12C1111.11,692.694 1112.32,688.239 1113.78,683.866C1120.61,663.342 1128.92,643.425 1138.49,624.034C1139.19,622.612 1139.69,620.949 1142.07,622.163C1139.57,627.201 1137.13,632.181 1134.63,637.12C1125.75,654.649 1118.74,672.944 1112.26,691.463C1111.59,693.383 1110.56,695.18 1109.7,697.034C1109.47,698.469 1109.24,699.899 1109.01,701.338ZM1154.12,582.505C1150.74,588.463 1147.24,594.364 1143.78,600.282C1143.04,601.553 1142.29,602.825 1139.89,602.344C1143.75,593.904 1148.62,586.299 1153.8,578.877C1154.16,579.012 1154.53,579.146 1154.89,579.281C1154.65,580.361 1154.64,581.579 1154.12,582.505ZM1164.7,581.094C1164.87,577.748 1169.78,570.184 1173.25,568.142C1171.79,573.18 1168.15,576.717 1164.7,581.094ZM1152.22,599.984C1151.76,597.563 1153.3,595.982 1154.38,594.429C1154.96,593.586 1156.41,593.337 1157.48,592.82C1156.3,595.778 1156.3,599.34 1152.22,599.984ZM1168.54,608.959C1166.09,609.207 1164.26,608.686 1162.03,607.206C1165.64,606.68 1165.64,606.68 1168.54,608.959ZM1118.16,618.459C1118.1,618.226 1118.04,617.994 1117.98,617.762C1119.25,617.456 1120.53,617.15 1121.81,616.845C1121.87,617.061 1121.92,617.277 1121.98,617.493C1120.71,617.819 1119.43,618.141 1118.16,618.459ZM1103.18,708.116C1103.05,708.079 1102.91,708.046 1102.79,708.01C1103.08,706.824 1103.38,705.642 1103.67,704.456C1103.86,704.562 1104.05,704.672 1104.24,704.778C1103.89,705.89 1103.53,707.003 1103.18,708.116ZM1165.1,566.769C1164.9,564.442 1165.96,564.246 1166.76,563.782C1166.98,564.002 1167.2,564.222 1167.42,564.442C1166.79,565.074 1166.16,565.705 1165.1,566.769ZM1143.62,615.272C1143.58,615.031 1143.53,614.795 1143.48,614.554C1144.3,614.322 1145.12,614.094 1145.94,613.861C1146.01,614.228 1146.09,614.591 1146.16,614.958C1145.32,615.06 1144.47,615.166 1143.62,615.272Z" style="fill:rgb(24,24,24);fill-rule:nonzero;stroke:rgb(25,25,25);stroke-width:2.56px;"/>
        </g>
        <g transform="matrix(0.66346,-0.805724,0.694805,0.66346,-232.926,1106.34)">
            <path d="M1205.14,680.101C1211.17,681.535 1217.04,680.26 1222.64,678.006C1238.03,671.815 1249.94,661.414 1258.83,647.501C1262.08,642.418 1264.37,636.974 1264.77,630.832C1265.69,616.824 1255.15,606.358 1241.15,607.21C1235.64,607.544 1230.5,609.207 1225.55,611.583C1217.96,615.219 1211.1,619.975 1204.71,625.363C1190.28,637.524 1178.22,651.723 1168.98,668.208C1164.28,676.587 1160.84,685.448 1159.87,695.127C1159.33,700.511 1159.93,705.756 1162.16,710.671C1167.56,722.592 1179.35,726.973 1190.74,725.241C1198.29,724.087 1205.4,721.508 1212.04,717.807C1237.68,703.506 1260.73,685.713 1281.68,665.221C1287.06,659.955 1315.27,631.544 1320.21,625.83C1321.33,624.538 1322.19,623.006 1323.01,621.494C1323.58,620.422 1323.85,619.089 1322.64,618.254C1321.56,617.508 1320.36,617.712 1319.41,618.706C1318.87,619.281 1318.38,619.917 1317.81,620.475C1314.99,623.271 1288.75,648.625 1285.77,651.258C1272.9,662.645 1258.7,672.141 1243.74,680.516C1232.74,686.674 1221.56,692.478 1209.46,696.231C1202.98,698.241 1196.4,699.867 1189.53,699.321C1186.27,699.06 1185.57,698.188 1185.87,695.029C1185.96,693.978 1186.17,692.922 1186.45,691.903C1188.37,684.93 1191.74,678.654 1196.19,671.725C1197.34,677.419 1201.07,679.131 1205.14,680.101ZM1245.5,689.336C1246.82,688.341 1248.21,687.432 1249.82,686.846C1248.35,688.419 1246.94,690.057 1244.64,690.469C1243.81,691.259 1243.08,692.201 1242.14,692.816C1231.11,700.05 1220.02,707.207 1207.79,712.33C1206.37,712.925 1204.81,713.206 1203.31,713.634C1202.3,714.18 1201.29,714.722 1200.28,715.264C1200.18,714.987 1200.09,714.706 1199.99,714.429C1201.12,714.192 1202.25,713.952 1203.38,713.715C1204.08,713.202 1204.72,712.525 1205.5,712.187C1217.73,706.856 1229.03,699.859 1240.25,692.726C1241.64,691.846 1243.23,691.267 1244.72,690.55C1244.97,690.139 1245.14,689.609 1245.5,689.336ZM1253.35,679.281C1253.55,679.559 1253.74,679.84 1253.94,680.121C1251.7,681.543 1249.91,683.634 1247.04,684.099C1246.53,684.645 1246.11,685.338 1245.5,685.725C1233.97,693.012 1222.24,699.932 1209.64,705.246C1203.41,707.875 1197.05,710.1 1190.29,710.92C1189.65,710.997 1189.01,711.03 1188.16,710.475C1190.17,709.603 1192.12,708.368 1194.23,707.912C1209.05,704.7 1222.36,697.988 1235.36,690.505C1238.69,688.59 1241.96,686.581 1245.28,684.665C1245.81,684.359 1246.49,684.331 1247.11,684.176C1249.18,682.542 1251.26,680.908 1253.35,679.281ZM1237.27,638.763C1230.46,648.793 1221.61,656.671 1211.16,662.735C1208.66,664.178 1205.93,665.241 1203.22,666.252C1202.43,666.55 1201.34,666.06 1200.23,665.91C1210.43,648.548 1230.92,629.943 1240.75,630.168C1240.55,633.636 1238.95,636.285 1237.27,638.763ZM1234.78,623.113C1218.96,631.04 1206.92,643.205 1196.5,657.164C1189.1,667.071 1182.5,677.464 1177.62,688.883C1177.14,690.008 1176.29,690.978 1175.15,692.735C1177.24,675.047 1211.45,627.033 1238.67,620.59C1237.38,621.438 1236.15,622.424 1234.78,623.113ZM1232.93,616.042C1203.97,631.602 1185.59,656.752 1170,685.313C1174.34,663.338 1213.82,619.979 1232.93,616.042ZM1241.38,649.347C1233.8,657.808 1225.15,664.927 1214.77,669.749C1212.75,670.69 1210.58,671.424 1208.4,671.933C1206.38,672.406 1204.23,672.675 1201.53,670.764C1209.13,671.909 1214.45,668.473 1219.77,665.107C1228.8,659.385 1236.62,652.306 1243.17,643.833C1244.85,641.656 1246.73,639.623 1248.52,637.524C1248.73,637.699 1248.93,637.87 1249.14,638.041C1247.31,642.321 1244.46,645.923 1241.38,649.347ZM1214.57,674.207C1222.24,670.967 1229.01,667.055 1234.87,661.834C1240.56,656.756 1245.9,651.283 1251.83,645.557C1244.12,658.236 1223.93,673.8 1214.57,674.207ZM1175.04,705.621C1178.47,706.102 1179.79,709.538 1182.67,710.667C1176.75,710.569 1175.92,710.011 1175.04,705.621ZM1251.46,623.879C1249.49,622.208 1247.86,620.831 1245.82,619.107C1250.34,619.172 1251.28,619.958 1251.46,623.879ZM1261.45,677.977C1261.57,678.116 1261.67,678.258 1261.79,678.397C1261.17,678.931 1260.56,679.465 1259.94,679.999C1259.77,679.844 1259.6,679.689 1259.43,679.534C1260.11,679.017 1260.78,678.495 1261.45,677.977ZM1253.26,684.849C1253.15,684.702 1253.03,684.559 1252.92,684.412C1253.63,683.822 1254.35,683.235 1255.07,682.644C1255.25,682.819 1255.42,682.99 1255.6,683.165C1254.82,683.724 1254.04,684.286 1253.26,684.849Z" style="fill:rgb(24,24,24);fill-rule:nonzero;stroke:rgb(25,25,25);stroke-width:3.95px;"/>
        </g>
    </g>
</svg>
